<?xml version="1.0" encoding="utf-8"?>
<!-- Generator: Adobe Illustrator 19.0.0, SVG Export Plug-In . SVG Version: 6.00 Build 0)  -->
<svg version="1.1" id="Capa_1" xmlns="http://www.w3.org/2000/svg" xmlns:xlink="http://www.w3.org/1999/xlink" x="0px" y="0px"
	 viewBox="-931 514.2 56.2 53.8" style="enable-background:new -931 514.2 56.2 53.8;" xml:space="preserve">
<style type="text/css">
	.st0{fill:none;stroke:#000000;stroke-width:0.25;stroke-miterlimit:10;}
	.st1{fill:#F2F2F2;stroke:#000000;stroke-width:0.5;stroke-miterlimit:10;}
	.st2{fill:#F2F2F2;stroke:#000000;stroke-miterlimit:10;}
</style>
<path class="st0" d="M-918.6,567.4h36.2c4,0,7.2-3.2,7.2-7.2v-23.1c0-4-3.2-7.2-7.2-7.2c0,0-7.9-0.1-12.3-0.1
	c-1.8,0,0.3,4.7-5.1,2.9c6,1.4-10.4-2.9-26,4.5v23.1C-925.9,564.1-922.6,567.4-918.6,567.4z"/>
<path class="st1" d="M-918.6,567.5h36.2c4,0,7.2-3.2,7.2-7.2v-23.1c0-4-3.2-7.2-7.2-7.2c0,0-7.9-0.1-12.3-0.1
	c-1.8,0,0.3,4.7-5.1,2.9c6,1.4-10.4-2.9-26,4.5v23.1C-925.9,564.2-922.6,567.5-918.6,567.5z"/>
<g>
	<path d="M-883.8,551.6c-0.1,0.1-0.2,0.2-0.3,0.2l0,0l0,0c-0.6,0.4-1.4,0.7-2.5,0.7c-3.1,0.2-5.8-5.2-10.1-4.9
		c-1.1,0.1-2.6,0.3-4.7,2.4c-2.1-2.1-3.6-2.3-4.7-2.4c-4.3-0.2-7.1,5.1-10.1,4.9c-1.1-0.1-1.9-0.4-2.5-0.7l0,0l0,0
		c-0.1-0.1-0.2-0.2-0.3-0.2c-1-0.6-0.7,0.5-0.6,0.8c0.9,2.8,3.2,7.3,9,7.6c4.6,0.2,7.7-1.8,9.3-4.1c1.6,2.3,4.7,4.4,9.3,4.1
		c5.7-0.3,8.1-4.8,9-7.6C-883.1,552.1-882.8,550.9-883.8,551.6z"/>
</g>
<path class="st2" d="M-895.2,520.2c-1.6-2.8-4.3-4.4-7.7-4.6c-3.1-0.2-6.2,0.8-8,1.7l-0.5,0.3c-0.7,0.3-1.5,0.8-2.5,1.3
	c-1-1.2-3.1-2.3-4.3-2.6c-0.2-0.1-0.5,0-0.6,0.2l-2.2,2c-0.2,0.2-0.2,0.4-0.2,0.6c0,0.2,0.2,0.4,0.4,0.5l3.3,1.3
	c-4.2,2.3-9.1,5.3-11.1,7.9c-1.1,1.4-1.6,2.8-1.4,4.2c0.3,2.4,2.7,4.1,4,5c0.1,0.1,0.2,0.1,0.3,0.1s0.3,0,0.4-0.1
	c7.5-5.2,18.2-5.5,24-5.2c2.5,0.1,4.1,0.4,4.1,0.4c0.2,0,0.5,0,0.6-0.2c0.1-0.1,1.3-1.5,2.2-3.8C-893.4,526-893.6,522.9-895.2,520.2
	z"/>
<path d="M-890.3,541.1h-0.8c-0.4-2.1-2.2-3.7-4.4-3.7s-4,1.5-4.4,3.6c-0.4-0.3-0.8-0.5-1.2-0.5s-0.8,0.2-1.2,0.5
	c-0.4-2-2.2-3.6-4.3-3.6c-2.3,0-4.3,1.8-4.5,4.1h-0.8c-0.2,0-0.4,0.2-0.4,0.4s0.2,0.4,0.4,0.4h0.8c0.2,2.3,2.1,4.1,4.5,4.1
	s4.4-1.9,4.4-4.3c0.3-0.5,0.7-0.7,1.1-0.7s0.8,0.3,1.1,0.7c0.1,2.4,2,4.3,4.5,4.3c2.4,0,4.4-2,4.4-4.5h0.7c0.2,0,0.4-0.2,0.4-0.4
	C-889.9,541.2-890,541.1-890.3,541.1z M-906.6,545.5c-2.1,0-3.7-1.7-3.7-3.7s1.7-3.7,3.7-3.7c2.1,0,3.7,1.6,3.7,3.7
	S-904.5,545.5-906.6,545.5z M-895.4,545.5c-2.1,0-3.7-1.7-3.7-3.7s1.7-3.7,3.7-3.7c2.1,0,3.7,1.6,3.7,3.7S-893.4,545.5-895.4,545.5z
	"/>
</svg>
