<?xml version="1.0" encoding="utf-8"?>
<!-- Generator: Adobe Illustrator 19.0.0, SVG Export Plug-In . SVG Version: 6.00 Build 0)  -->
<svg version="1.1" id="Capa_1" focusable="false" xmlns="http://www.w3.org/2000/svg" xmlns:xlink="http://www.w3.org/1999/xlink"
	 x="0px" y="0px" viewBox="-783 285 352 512" style="enable-background:new -783 285 352 512;" xml:space="preserve">
<style type="text/css">
	.st0{fill:#C5D2DC;}
</style>
<path class="st0" d="M-607,637c53,0,96-43,96-96V381c0-53-43-96-96-96s-96,43-96,96v160C-703,594-660,637-607,637z M-447,477h-16
	c-8.8,0-16,7.2-16,16v48c0,74.8-64.5,134.8-140.8,127.4c-66.5-6.5-115.2-66.3-115.2-133.1V493c0-8.8-7.2-16-16-16h-16
	c-8.8,0-16,7.2-16,16v40.2c0,89.6,64,169.5,152,181.7V749h-56c-8.8,0-16,7.2-16,16v16c0,8.8,7.2,16,16,16h160c8.8,0,16-7.2,16-16
	v-16c0-8.8-7.2-16-16-16h-56v-33.8c85.7-11.8,152-85.3,152-174.2v-48C-431,484.2-438.2,477-447,477z"/>
</svg>
